<svg width="144" height="28" viewBox="0 0 144 28" fill="none" xmlns="http://www.w3.org/2000/svg">
<g id="Layer_1" clip-path="url(#clip0_1_127)">
<g id="Group">
<g id="Group_2">
<path id="Vector" d="M122.661 13.5244L122.552 27.7943L127.462 27.8289L127.57 13.5591L122.661 13.5244Z" fill="#05509F"/>
<path id="Vector_2" d="M125.17 13.0137H125.19C126.55 13.0137 127.65 11.9738 127.66 10.6835C127.66 10.048 127.41 9.45096 126.95 8.99839C126.49 8.54583 125.87 8.29547 125.21 8.28584H125.19C124.55 8.28584 123.94 8.52657 123.48 8.9695C123.01 9.41244 122.75 10.0094 122.75 10.645C122.75 11.2805 123 11.8678 123.46 12.3204C123.92 12.773 124.53 13.0041 125.17 13.0137Z" fill="#05509F"/>
</g>
<path id="Vector_3" d="M143.86 13.5722L129.79 13.4663L129.76 17.6549L135.45 17.703L128.37 27.7269L142.73 27.8328L142.77 23.6441L136.68 23.596L143.86 13.5722Z" fill="#05509F"/>
<path id="Vector_4" d="M119.14 15.1417C117.75 13.7166 115.86 12.927 113.82 12.9174H113.77C112.52 12.9174 111.49 13.2737 110.74 13.6685L110.79 7.66959L105.85 7.63107L105.75 20.3221C105.73 22.3057 106.53 24.1834 107.99 25.6085C109.45 27.0336 111.39 27.8232 113.46 27.8424H113.52C115.58 27.8424 117.51 27.0817 118.96 25.6855C120.42 24.2893 121.24 22.4213 121.25 20.4377C121.27 18.4348 120.51 16.5668 119.13 15.1513L119.14 15.1417ZM117.59 21.1406C117.08 23.1723 114.95 24.4241 112.83 23.933C112.46 23.8464 112.11 23.7116 111.79 23.5382C111.39 23.3168 109.85 24.2989 109.56 23.9715C109.28 23.6538 110.24 22.0265 110.08 21.6317C109.8 20.9384 109.72 20.1488 109.92 19.3689C110.43 17.3371 112.56 16.0854 114.68 16.5764C116.8 17.0675 118.1 19.1089 117.59 21.1502V21.1406Z" fill="#05509F"/>
<path id="Vector_5" d="M116.36 20.8999C116.02 22.2479 114.61 23.076 113.21 22.7487C112.96 22.6909 112.73 22.6042 112.52 22.4887C112.26 22.3442 111.48 22.6427 111.29 22.4213C111.1 22.2094 111.49 21.4776 111.38 21.2176C111.19 20.7554 111.14 20.2355 111.27 19.7155C111.61 18.3674 113.02 17.5393 114.42 17.8667C115.82 18.1941 116.69 19.5422 116.35 20.8903" fill="#00AAE5"/>
</g>
<g id="Group_3">
<path id="Vector_6" d="M0.159997 8.84432H9.72L13.44 12.59L14.5 11.2227C14.5 11.2227 14.95 18.7718 25.57 26.4077C26.19 26.8506 26.02 27.5728 25.48 27.5728H17.73C17.73 27.5728 16.83 27.7365 15.72 26.3499C14.61 24.9633 13.87 24.1352 13.87 24.1352C13.87 24.1352 13.47 23.673 13.1 23.673C12.73 23.673 11.98 24.7322 10.91 25.9936C9.84 27.255 9.72 27.5728 8.98 27.5728H0.919997C0.919997 27.5728 -0.190003 27.5343 0.669997 26.4654C1.53 25.3966 7.95 18.4252 7.95 18.4252C7.95 18.4252 8.32 17.8667 7.54 17.1542C6.76 16.4416 0.749997 9.81685 0.749997 9.81685C0.749997 9.81685 -0.430003 8.82506 0.159997 8.82506V8.84432Z" fill="#05509F"/>
<path id="Vector_7" d="M25.57 26.4075C25.57 26.4075 24.08 24.2988 23.46 22.6522C22.84 21.0057 24.69 21.1694 26.28 21.1694H30.51C30.51 21.1694 31.57 21.1694 32.05 20.322C32.53 19.4746 35.09 14.9297 35.09 14.9297C35.09 14.9297 36.24 13.3698 34.78 13.3698H22.84V1.01579C22.84 1.01579 22.58 -0.0915511 21.61 0.505449C20.64 1.10245 16.59 3.85635 16.59 3.85635C16.59 3.85635 15.53 4.39558 15.53 6.61026C15.53 8.82493 15.38 18.1844 25.57 26.4172V26.4075Z" fill="#00AAE5"/>
<path id="Vector_8" d="M50.13 17.4623V13.8899C50.13 13.8899 48.09 12.7441 43.9 12.7441C39.71 12.7441 37.68 14.4388 37.68 17.4623C37.68 20.4858 41.57 21.4872 42.24 21.622C42.91 21.7569 45.38 21.988 45.33 23.2205C45.28 24.453 39.34 23.6827 38.01 22.8546V26.7928C38.01 26.7928 40.24 27.5824 44.24 27.5824C48.24 27.5824 51.09 26.244 51.09 22.6331C51.09 19.0222 46.06 18.4637 46.06 18.4637C46.06 18.4637 43.58 18.3963 43.58 17.2312C43.58 16.2683 47.34 16.2779 50.14 17.4623H50.13Z" fill="#05509F"/>
<path id="Vector_9" d="M61.05 12.7441C56.57 12.7441 54.46 13.6203 54.46 13.6203V16.9327C54.46 16.9327 55.43 16.1913 58.37 16.1913C63.05 16.1913 62.52 18.4445 62.52 18.4445H56.87C54.6 18.4445 52.49 20.2451 52.49 22.7872C52.49 25.3292 54.3 27.3898 57.4 27.3898C61.18 27.3898 62.82 25.7625 62.82 25.7625V27.0721H67.67V17.1253C67.67 14.8047 65.53 12.7345 61.05 12.7345V12.7441ZM57.74 22.7679C57.74 21.1599 59.11 21.1887 59.11 21.1887H62.39C62.9 25.3677 57.74 24.9633 57.74 22.7679Z" fill="#05509F"/>
<path id="Vector_10" d="M66.64 11.1168V7.56366C66.64 7.56366 69.65 7.71772 71.76 4.81938H76.46V20.6206H70.5V11.2227L66.65 11.1168H66.64Z" fill="#00AAE5"/>
<path id="Vector_11" d="M70.44 21.6413H76.46C76.46 21.6413 75.72 24.7418 79.94 23.673V27.1298C79.94 27.1298 78.94 27.8905 75.61 27.8905C72.28 27.8905 70.44 25.8107 70.44 21.6413Z" fill="#05509F"/>
<path id="Vector_12" d="M77.54 7.23627V11.0783H80.31L81.5 7.23627H77.54Z" fill="#05509F"/>
<path id="Vector_13" d="M81.78 13.4085V24.0967C81.78 24.0967 82.27 27.8809 87.76 27.8809C90.15 27.8809 92.54 26.3788 92.54 26.3788V27.8809H97.7V13.6107H91.94V22.7775C91.94 22.7775 91.72 23.856 89.74 23.856C87.76 23.856 87.49 22.7775 87.49 22.7775V13.3988H81.79L81.78 13.4085Z" fill="#05509F"/>
</g>
</g>
<defs>
<clipPath id="clip0_1_127">
<rect width="143.86" height="27.5583" fill="white" transform="translate(0 0.33226)"/>
</clipPath>
</defs>
</svg>
